<svg width="37" height="42" viewBox="0 0 37 42" fill="none" xmlns="http://www.w3.org/2000/svg">
<path fill-rule="evenodd" clip-rule="evenodd" d="M32.4603 8.79053C34.1671 9.77594 34.962 10.8574 34.8452 12.0348C34.748 13.2009 33.7095 14.3555 31.7297 15.4985L30.2695 16.347C25.5002 19.1182 22.8234 22.8661 22.8234 26.7727L22.8234 37.942C22.8234 38.8666 20.8879 39.33 19.7546 38.6768C18.2339 37.8003 17.3794 36.6107 17.3794 35.3702L17.3794 23.6271C17.3794 19.722 20.0542 15.9753 24.8204 13.2044L25.5506 12.7798C26.6679 12.1347 26.7263 11.5234 25.7258 10.9457C24.5683 10.2775 23.2643 10.3621 21.8138 11.1995L21.6964 11.2667C16.8424 14.0443 14.1118 17.8266 14.1118 21.7723L14.1118 32.9289C14.1118 33.8563 12.1685 34.3201 11.0343 33.6634C9.51878 32.7859 8.66774 31.5973 8.66774 30.3581L8.66775 18.6316C8.66774 14.7183 11.3537 10.9645 16.1374 8.19217L16.8696 7.76784C17.9869 7.12276 18.0453 6.51139 17.0448 5.93374C15.8873 5.26548 14.5833 5.35008 13.1328 6.18755L12.9414 6.29811C8.14074 9.07175 5.44403 12.8324 5.44403 16.7536V20.1105L2.76289 16.6663L1.47956e-06 18.8171L2.66488e-06 13.6115C3.93102e-06 9.68975 2.69757 5.92852 7.4996 3.15478L11.7423 0.704126C13.3684 -0.234709 16.0048 -0.234709 17.6309 0.704125C18.5954 1.26094 19.0263 2.05516 18.7846 2.83015C18.7667 2.8876 18.8495 2.93886 18.9503 2.93414C21.0262 2.83695 22.8909 3.26566 24.5444 4.22028C26.2315 5.19436 26.85 6.2531 26.3998 7.3965C28.6745 7.30647 30.6947 7.77114 32.4603 8.79053ZM5.49058e-07 22.9035L0 25.3148C0 26.554 0.85103 27.7426 2.36652 28.62C3.50078 29.2768 5.44403 28.813 5.44403 27.8855V24.4784L2.62646 20.859L5.49058e-07 22.9035Z" fill="url(#paint0_linear)"/>
<path d="M34.5618 25.3481C36.0304 25.5148 36.7647 26.5949 36.7647 28.5884C36.7647 30.3328 36.2314 32.0202 35.1647 33.6506C34.0981 35.2632 32.5677 36.6452 30.5735 37.7965C28.5793 38.9478 27.0489 39.333 25.9823 38.9521C24.9156 38.5533 24.3823 37.4818 24.3823 35.7374C24.3823 33.7438 25.1166 31.8158 26.5852 29.9534C25.4876 29.6437 24.9388 28.7146 24.9388 27.166C24.9388 25.4394 25.4644 23.7832 26.5156 22.1973C27.5668 20.5937 28.9194 19.3143 30.5735 18.3594C32.2276 17.4044 33.5802 17.1218 34.6314 17.5117C35.6826 17.8838 36.2082 18.9331 36.2082 20.6596C36.2082 22.2082 35.6594 23.771 34.5618 25.3481ZM30.5735 23.0584C29.5996 23.6207 29.1127 24.3558 29.1127 25.2635C29.1127 26.1713 29.5996 26.3441 30.5735 25.7818C31.0063 25.5319 31.3542 25.2154 31.617 24.8322C31.8952 24.4402 32.0343 24.0217 32.0343 23.5767C32.0343 23.1317 31.8952 22.8738 31.617 22.8031C31.3542 22.7234 31.0063 22.8085 30.5735 23.0584ZM29.4141 33.2595C29.6924 33.3658 30.0788 33.2762 30.5735 32.9906C31.0682 32.705 31.4469 32.3528 31.7097 31.9341C31.988 31.4887 32.1271 31.0168 32.1271 30.5184C32.1271 30.02 31.988 29.7176 31.7097 29.6113C31.4469 29.4782 31.0682 29.5545 30.5735 29.8401C30.0788 30.1257 29.6924 30.4912 29.4141 30.9366C29.1513 31.3554 29.0199 31.8139 29.0199 32.3123C29.0199 32.8107 29.1513 33.1264 29.4141 33.2595Z" fill="url(#paint1_linear)"/>
<defs>
<linearGradient id="paint0_linear" x1="23" y1="8" x2="6" y2="33.5" gradientUnits="userSpaceOnUse">
<stop stop-color="#B1D2B7"/>
<stop offset="1" stop-color="#7FA887"/>
</linearGradient>
<linearGradient id="paint1_linear" x1="24" y1="25" x2="37.4306" y2="25.7458" gradientUnits="userSpaceOnUse">
<stop stop-color="#ADB683"/>
<stop offset="1" stop-color="#BEC79B"/>
</linearGradient>
</defs>
</svg>
