<svg width="38" height="38" viewBox="0 0 38 38" fill="none" xmlns="http://www.w3.org/2000/svg">
<path d="M34.625 0.25H3.375C2.5462 0.25 1.75134 0.57924 1.16529 1.16529C0.57924 1.75134 0.25 2.5462 0.25 3.375V34.625C0.25 35.4538 0.57924 36.2487 1.16529 36.8347C1.75134 37.4208 2.5462 37.75 3.375 37.75H34.625C35.4538 37.75 36.2487 37.4208 36.8347 36.8347C37.4208 36.2487 37.75 35.4538 37.75 34.625V3.375C37.75 2.5462 37.4208 1.75134 36.8347 1.16529C36.2487 0.57924 35.4538 0.25 34.625 0.25ZM15.875 27.5938L8.0625 19.8484L10.5469 17.4375L15.875 22.6656L27.4516 11.1875L29.9375 13.6516L15.875 27.5938Z" fill="#15775F"/>
</svg>
