<svg width="259" height="194" viewBox="0 0 259 194" fill="none" xmlns="http://www.w3.org/2000/svg">
<g clip-path="url(#clip0_120_164)">
<path d="M219.4 119.656L216.101 120.436L220.236 137.928L223.535 137.148L219.4 119.656Z" fill="#F0F6FF"/>
<path d="M223.029 118.299L220.197 133.653L222.028 133.991L224.86 118.637L223.029 118.299Z" fill="#C1D8ED"/>
<path d="M223.031 118.294L222.708 119.988L224.538 120.336L224.86 118.642L223.031 118.294Z" fill="#DEE8F5"/>
<path d="M217.359 122.199L216.342 122.599L222.277 137.664L223.294 137.264L217.359 122.199Z" fill="#0CBC8B"/>
<path d="M225.005 128.793H216.059V140.226H225.005V128.793Z" fill="#DEE8F5"/>
<path d="M258.802 193.796H0.626709C3.45574 186.582 8.67979 180.462 16.0434 178.647C26.8162 175.995 38.2172 183.286 48.9663 180.545C55.0743 178.989 59.8813 174.453 64.9333 170.687C83.993 156.476 110.111 152.278 132.666 159.798C144.455 163.728 155.197 170.599 167.274 173.522C182.89 177.302 199.22 174.168 215.279 173.651C230.919 173.147 253.329 179.52 258.802 193.796Z" fill="#F3F5FD"/>
<path d="M196.274 0.529114H13.8911V132.609H196.274V0.529114Z" fill="#DEE8F5"/>
<path d="M110.466 19.6557H21.8914V68.0262H110.466V19.6557Z" fill="white"/>
<path d="M63.8039 32.5576H30.2781V36.1533H63.8039V32.5576Z" fill="#DEE8F5"/>
<path d="M63.8039 42.0431H30.2781V45.6388H63.8039V42.0431Z" fill="#DEE8F5"/>
<path d="M63.8039 51.5286H30.2781V55.1243H63.8039V51.5286Z" fill="#DEE8F5"/>
<path d="M110.466 75.6711H21.8914V124.042H110.466V75.6711Z" fill="white"/>
<path d="M58.1171 91.4636H52.8904V116.229H58.1171V91.4636Z" fill="#C1D8ED"/>
<path d="M85.8829 94.5381H80.6562V116.229H85.8829V94.5381Z" fill="#C1D8ED"/>
<path d="M67.3722 84.9111H62.1455V116.229H67.3722V84.9111Z" fill="#C1D8ED"/>
<path d="M76.6276 98.8075H71.4009V116.229H76.6276V98.8075Z" fill="#C1D8ED"/>
<path d="M95.1378 89.9534H89.9111V116.229H95.1378V89.9534Z" fill="#C1D8ED"/>
<path d="M104.509 84.9111H99.282V116.229H104.509V84.9111Z" fill="#C1D8ED"/>
<path d="M187.435 20.0131H118.542V124.399H187.435V20.0131Z" fill="white"/>
<path d="M176.659 78.1331H129.318V81.4889H176.659V78.1331Z" fill="#DEE8F5"/>
<path d="M176.659 87.6738H129.318V91.0296H176.659V87.6738Z" fill="#DEE8F5"/>
<path d="M176.659 97.2142H129.318V100.57H176.659V97.2142Z" fill="#DEE8F5"/>
<path d="M170.786 106.611H135.191V109.967H170.786V106.611Z" fill="#DEE8F5"/>
<path d="M152.989 66.6334C162.72 66.6334 170.608 58.7451 170.608 49.0143C170.608 39.2836 162.72 31.3953 152.989 31.3953C143.258 31.3953 135.37 39.2836 135.37 49.0143C135.37 58.7451 143.258 66.6334 152.989 66.6334Z" fill="#0CBC8B"/>
<g opacity="0.29">
<path opacity="0.29" d="M152.989 60.4362C159.297 60.4362 164.411 55.3224 164.411 49.0143C164.411 42.7062 159.297 37.5925 152.989 37.5925C146.681 37.5925 141.567 42.7062 141.567 49.0143C141.567 55.3224 146.681 60.4362 152.989 60.4362Z" fill="white"/>
</g>
<path d="M149.25 53.094L150.316 51.4419C151.16 52.088 151.899 52.4189 152.685 52.4189C153.626 52.4189 154.041 52.0284 154.041 51.2722C154.041 49.5629 149.655 49.5937 149.655 46.5958C149.655 44.6686 150.99 43.4411 153.095 43.4411C153.693 43.4325 154.286 43.5541 154.832 43.7975C155.378 44.0409 155.865 44.4003 156.258 44.8507L155.036 46.2505C154.432 45.7014 153.92 45.4121 153.226 45.4121C152.427 45.4121 151.993 45.7351 151.993 46.4807C151.993 48.065 156.378 47.9266 156.378 51.1025C156.378 53.0112 155.116 54.3899 152.684 54.3899C151.425 54.3615 150.214 53.9044 149.25 53.094ZM152.172 41.8128H153.793V44.2055H152.172V41.8128ZM152.172 53.3927H153.793V56.0179H152.172V53.3927Z" fill="white"/>
<path d="M85.0199 61.4502C94.7507 61.4502 102.639 53.5618 102.639 43.8311C102.639 34.1004 94.7507 26.2121 85.0199 26.2121C75.2892 26.2121 67.4009 34.1004 67.4009 43.8311C67.4009 53.5618 75.2892 61.4502 85.0199 61.4502Z" fill="#0CBC8B"/>
<g opacity="0.29">
<path opacity="0.29" d="M85.02 55.253C91.3281 55.253 96.4418 50.1392 96.4418 43.8311C96.4418 37.523 91.3281 32.4093 85.02 32.4093C78.7119 32.4093 73.5981 37.523 73.5981 43.8311C73.5981 50.1392 78.7119 55.253 85.02 55.253Z" fill="white"/>
</g>
<path d="M81.2815 47.9108L82.3472 46.2587C83.1917 46.9047 83.9302 47.2357 84.7157 47.2357C85.6575 47.2357 86.0715 46.8451 86.0715 46.089C86.0715 44.3796 81.6862 44.4105 81.6862 41.4126C81.6862 39.4853 83.0211 38.2579 85.1263 38.2579C85.7241 38.2492 86.3167 38.3708 86.8629 38.6142C87.409 38.8576 87.8956 39.217 88.2889 39.6674L87.067 41.0672C86.463 40.5181 85.9511 40.2289 85.2575 40.2289C84.4582 40.2289 84.0242 40.5519 84.0242 41.2975C84.0242 42.8832 88.4096 42.7434 88.4096 45.9192C88.4096 47.828 87.1469 49.2067 84.7154 49.2067C83.4566 49.1783 82.2452 48.7212 81.2815 47.9108ZM84.2036 36.6299H85.8243V39.0223H84.2036V36.6299ZM84.2036 48.2094H85.8243V50.8347H84.2036V48.2094Z" fill="white"/>
<path d="M38.3822 109.73C44.3677 109.73 49.22 104.878 49.22 98.8921C49.22 92.9066 44.3677 88.0543 38.3822 88.0543C32.3967 88.0543 27.5444 92.9066 27.5444 98.8921C27.5444 104.878 32.3967 109.73 38.3822 109.73Z" fill="#0CBC8B"/>
<g opacity="0.29">
<path opacity="0.29" d="M38.3823 105.918C42.2624 105.918 45.4079 102.772 45.4079 98.8921C45.4079 95.012 42.2624 91.8665 38.3823 91.8665C34.5022 91.8665 31.3567 95.012 31.3567 98.8921C31.3567 102.772 34.5022 105.918 38.3823 105.918Z" fill="white"/>
</g>
<path d="M36.0825 101.402L36.7379 100.385C37.1416 100.745 37.6553 100.957 38.195 100.986C38.7741 100.986 39.029 100.746 39.029 100.282C39.029 99.2301 36.3315 99.2492 36.3315 97.4039C36.3315 96.2184 37.1538 95.4634 38.4476 95.4634C38.8153 95.4581 39.1798 95.5328 39.5158 95.6825C39.8518 95.8322 40.1511 96.0533 40.393 96.3303L39.6413 97.1913C39.4995 97.0354 39.328 96.9095 39.1368 96.8209C38.9456 96.7324 38.7386 96.683 38.528 96.6756C38.0365 96.6756 37.7698 96.8738 37.7698 97.3331C37.7698 98.3074 40.4673 98.2223 40.4673 100.176C40.4673 101.35 39.6909 102.198 38.195 102.198C37.4207 102.181 36.6755 101.9 36.0825 101.402ZM37.88 94.4624H38.8784V95.9341H37.88V94.4624ZM37.88 101.585H38.8784V103.2H37.88V101.585Z" fill="white"/>
<path d="M196.274 0.529114H13.8911V11.4092H196.274V0.529114Z" fill="#C1D8ED"/>
<path d="M190.165 8.69906C191.673 8.69906 192.895 7.47689 192.895 5.96928C192.895 4.46167 191.673 3.2395 190.165 3.2395C188.657 3.2395 187.435 4.46167 187.435 5.96928C187.435 7.47689 188.657 8.69906 190.165 8.69906Z" fill="white"/>
<path d="M54.3604 72.0251C54.3604 72.0251 56.7219 71.0109 56.7219 64.8069L61.4688 64.3233C61.4688 64.3233 60.4903 69.8051 62.7121 71.7526L54.3604 72.0251Z" fill="#E98862"/>
<path d="M54.2649 62.1996C54.4352 64.096 55.3103 65.9501 56.9101 66.6892C58.6493 67.5502 60.5727 67.9725 62.5127 67.9193C67.6656 67.9193 67.6075 56.1974 65.3611 53.736C63.1146 51.2746 55.8668 52.1227 54.6892 55.8329C54.0816 57.7531 54.1025 60.3948 54.2649 62.1996Z" fill="#E98862"/>
<path d="M65.0912 58.4984C66.0915 58.4907 67.0897 58.4066 68.0771 58.2468C68.0771 58.2468 67.7746 50.6347 59.6907 51.0688C58.6409 51.0208 57.589 51.0828 56.5522 51.2538C54.1225 51.6264 50.6777 54.1107 50.1212 60.3276C49.8663 63.1798 48.8829 65.8685 48.1329 67.5707C48.0442 67.7706 48.0068 67.9894 48.0241 68.2073C48.0414 68.4252 48.1129 68.6354 48.2319 68.8188C48.351 69.0021 48.514 69.1528 48.7061 69.2572C48.8982 69.3616 49.1133 69.4164 49.3319 69.4166L66.6511 69.2792C66.8559 69.2794 67.058 69.2317 67.241 69.1398C67.4241 69.0479 67.5831 68.9144 67.7053 68.75C67.8275 68.5856 67.9095 68.3949 67.9447 68.1931C67.98 67.9914 67.9675 67.7842 67.9082 67.5881C66.9671 64.468 65.2442 62.5558 65.0912 58.4984Z" fill="#0F1011"/>
<path d="M74.2424 190.427L68.1189 189.698C68.3946 187.381 68.7062 184.596 68.7273 184.14C68.7273 184.17 68.7273 184.194 68.7273 184.212H74.894C74.8928 184.397 74.8928 184.959 74.2424 190.427Z" fill="#E98862"/>
<path d="M49.6711 191.164L43.5044 191.144C43.5044 191.144 43.5249 184.776 43.5249 184.212H49.6916C49.6916 184.778 49.6711 191.164 49.6711 191.164Z" fill="#E98862"/>
<path d="M65.6541 188.479L76.5192 188.294C76.0088 175.364 75.9777 161.802 75.8185 148.84C73.6984 134.87 72.5816 119.529 69.9646 105.659L69.8862 105.682L69.6566 104.117L47.3174 102.737C47.3174 102.737 46.6713 113.685 46.4482 117.332C45.3596 135.033 43.2447 167.824 41.9177 188.127L52.744 189.041C54.6939 169.136 57.419 140.131 59.2757 119.221C61.4079 129.402 63.1519 139.943 65.006 150.037C65.3769 162.674 65.6888 175.882 65.6541 188.479Z" fill="#262626"/>
<path d="M57.1676 193.549C57.326 193.548 57.4827 193.516 57.6288 193.455C57.7749 193.393 57.9075 193.304 58.019 193.191C58.1305 193.079 58.2187 192.946 58.2787 192.799C58.3386 192.652 58.3691 192.495 58.3683 192.337C58.3683 192.307 58.3669 192.278 58.3648 192.249C58.3469 192.02 58.2638 191.8 58.1255 191.617C57.9872 191.433 57.7993 191.293 57.584 191.212L50.4063 188.809C50.2673 188.762 50.1199 188.747 49.9744 188.763C49.8288 188.779 49.6884 188.827 49.5629 188.902C48.5761 189.587 47.3958 189.937 46.1953 189.901C45.2604 189.834 44.363 189.506 43.6053 188.955C43.5388 188.9 43.458 188.865 43.3725 188.855C43.287 188.844 43.2003 188.858 43.1225 188.895C43.0447 188.932 42.979 188.991 42.9331 189.063C42.8872 189.136 42.863 189.221 42.8633 189.307V192.817C42.8633 193.025 42.9461 193.225 43.0936 193.373C43.2411 193.52 43.4411 193.603 43.6497 193.603H43.6526L57.1676 193.549Z" fill="#C1D8ED"/>
<path d="M81.756 193.549C81.9144 193.548 82.0711 193.516 82.2171 193.455C82.3632 193.394 82.4957 193.304 82.6072 193.192C82.7186 193.079 82.8069 192.946 82.8668 192.799C82.9267 192.653 82.9572 192.496 82.9565 192.337C82.9565 192.308 82.9565 192.279 82.953 192.249C82.9351 192.02 82.8521 191.801 82.7138 191.617C82.5755 191.434 82.3877 191.293 82.1724 191.213L74.9947 188.809C74.8557 188.763 74.7084 188.747 74.5628 188.764C74.4172 188.78 74.2768 188.827 74.1514 188.903C73.1645 189.587 71.9842 189.937 70.7838 189.901C69.8488 189.835 68.9514 189.507 68.1938 188.955C68.1272 188.9 68.0464 188.866 67.9609 188.855C67.8754 188.845 67.7886 188.859 67.7107 188.896C67.6329 188.933 67.5671 188.991 67.5212 189.064C67.4753 189.137 67.4511 189.221 67.4514 189.308V192.817C67.4514 193.026 67.5343 193.226 67.6817 193.373C67.8292 193.521 68.0292 193.604 68.2378 193.604H68.241L81.756 193.549Z" fill="#C1D8ED"/>
<path d="M40.7396 113.32C40.7396 114.196 41.2018 117.121 40.4586 117.33C40.0128 117.456 39.4866 115.275 39.4866 115.275" fill="#E98862"/>
<path d="M37.2319 112.86C37.2319 112.86 34.8052 118.767 37.5732 122.16C37.6438 122.246 37.7387 122.309 37.8457 122.341C37.9527 122.372 38.0666 122.371 38.1728 122.336C38.2789 122.302 38.3722 122.237 38.4405 122.149C38.5088 122.06 38.549 121.954 38.5557 121.842C38.6902 119.555 39.1515 114.855 40.66 115.404V111.715" fill="#E98862"/>
<path d="M91.9522 81.3914C91.9522 81.3914 95.3415 78.6992 95.5811 77.7322C95.8207 76.7652 93.4339 74.8633 93.4339 74.8633C93.4339 74.8633 96.6077 71.6625 95.9749 71.2003C95.2282 70.6526 91.5452 75.3061 91.5452 75.3061C91.5452 75.3061 92.0658 73.6323 91.4172 73.5222C91.1508 73.4769 90.9397 73.7386 90.5227 74.9235C90.0476 76.2743 89.0979 78.3049 89.0979 78.3049L91.9522 81.3914Z" fill="#E98862"/>
<path d="M88.3832 77.8121L78.3586 89.0904L70.5181 75.0556C69.7757 72.8383 68.0858 71.353 64.6383 71.205C63.4593 71.1545 57.7064 71.1462 53.4946 71.1462C50.6647 71.1462 48.3416 72.0146 47.0002 73.3563C46.3243 74.0221 45.8186 74.8409 45.5258 75.7433L45.4852 75.7284L38.7448 94.0569C38.669 94.2623 38.6147 94.4751 38.5827 94.6917L35.8623 113.02L42.1958 113.959L44.868 95.9586L47.5901 88.5565C47.8737 89.6942 48.0287 90.8602 48.052 92.0324C48.052 98.1991 45.2624 100.965 45.4679 104.129C45.7909 109.105 69.9666 107.93 71.1985 105.103C72.4668 102.188 69.8926 100.393 70.0054 90.8584C70.0174 89.821 70.0979 88.7353 70.208 87.6303L74.9651 96.1462C75.2141 96.5923 75.5663 96.9723 75.9922 97.2544C76.418 97.5366 76.9053 97.7127 77.4131 97.7681C77.921 97.8234 78.4347 97.7564 78.9114 97.5727C79.3881 97.3889 79.8138 97.0937 80.1531 96.7118L93.3333 81.2951L88.3832 77.8121Z" fill="#367CFF"/>
<path d="M192.178 160.879H188.832V193.796H192.178V160.879Z" fill="#C1D8ED"/>
<path d="M189.425 160.879H186.078V193.796H189.425V160.879Z" fill="#DEE8F5"/>
<path d="M233.856 160.879H230.51V193.796H233.856V160.879Z" fill="#C1D8ED"/>
<path d="M231.102 160.879H227.756V193.796H231.102V160.879Z" fill="#DEE8F5"/>
<path d="M201.356 160.879H198.01V193.796H201.356V160.879Z" fill="#C1D8ED"/>
<path d="M198.602 160.879H195.256V193.796H198.602V160.879Z" fill="#DEE8F5"/>
<path d="M243.034 160.879H239.688V193.796H243.034V160.879Z" fill="#C1D8ED"/>
<path d="M240.28 160.879H236.934V193.796H240.28V160.879Z" fill="#DEE8F5"/>
<path d="M243.034 139.809H198.031V161.668H243.034V139.809Z" fill="#C1D8ED"/>
<path d="M231.082 139.809H186.078V161.668H231.082V139.809Z" fill="#DEE8F5"/>
<g opacity="0.53">
<path opacity="0.53" d="M228.66 142.916H188.5V158.464H228.66V142.916Z" fill="#F3F5FD"/>
</g>
<path d="M208.58 152.474C209.565 152.474 210.364 151.675 210.364 150.69C210.364 149.705 209.565 148.907 208.58 148.907C207.595 148.907 206.796 149.705 206.796 150.69C206.796 151.675 207.595 152.474 208.58 152.474Z" fill="white"/>
</g>
<defs>
<clipPath id="clip0_120_164">
<rect width="258.175" height="193.267" fill="white" transform="translate(0.626709 0.529114)"/>
</clipPath>
</defs>
</svg>
