<svg width="922" height="549" viewBox="0 0 922 549" fill="none" xmlns="http://www.w3.org/2000/svg">
<g clip-path="url(#clip0_157_236)">
<path d="M53.611 548.301C53.611 548.301 -53.1889 422.49 35.551 286.281C114.283 165.426 206.074 173.7 273.421 222.732C302.107 243.618 409.252 226.5 502.954 123.948C602.707 14.769 869.533 68.4 823.24 294.357C797.464 420.165 912.589 423.753 852.103 548.565L53.611 548.301Z" fill="#FCECDB"/>
<path d="M922 3.42896L755.857 58.377L789.211 86.1749L645.448 236.673L519.43 128.472L16.4111 540.633L20.8391 540.702H146.149L518.197 235.86L651.049 349.929L852.559 138.975L852.562 138.972L888.562 168.975L922 3.42896Z" fill="#15775F"/>
<path d="M332.821 446.418L294.655 443.136C294.655 443.136 296.863 419.607 290.155 388.236C285.199 365.055 275.377 337.587 256.213 312.147C223.513 268.767 126.436 244.497 126.436 244.497V238.869L129.922 238.5C128.84 237.789 127.665 237.232 126.43 236.844V223.557C130.138 223.478 133.842 223.841 137.464 224.637C135.19 224.07 130.339 222.957 126.43 222.657V215.676C267.073 219.435 312.94 304.386 327.313 370.131C336.52 412.2 332.821 446.418 332.821 446.418Z" fill="#82B378"/>
<path d="M499.855 434.07L332.821 446.418C331.957 420.693 325.243 394.086 318.748 373.914C312.253 353.742 305.971 340.014 305.971 340.014C256.003 230.514 126.43 215.685 126.43 215.685L270.241 156.78C339.715 162.009 388.441 195.375 422.545 237.27C489.307 319.32 499.855 434.07 499.855 434.07Z" fill="#A8D29F"/>
<path opacity="0.5" d="M499.855 434.07L332.821 446.418L294.655 443.136C294.655 443.136 296.863 419.607 290.155 388.236C298.111 383.436 307.573 378.657 318.754 373.929C321.69 372.687 324.545 371.426 327.319 370.146C433.672 321.06 423.763 244.596 422.551 237.285C489.307 319.32 499.855 434.07 499.855 434.07Z" fill="#82B378"/>
<path d="M486.721 446.934L337.861 444.054L338.386 441.189C338.467 440.754 346.111 397.11 328.264 347.487C317.806 318.414 300.76 292.98 277.6 271.887C248.581 245.469 209.8 225.807 162.34 213.444L155.029 211.542L271.207 165.3H271.654C272.911 165.273 302.836 164.82 341.299 183C363.847 193.665 384.604 208.563 402.997 227.286C425.944 250.644 445.246 280.047 460.369 314.676C461.569 317.337 489.838 380.817 488.344 418.932V418.98L486.721 446.934ZM343.696 439.2L482.053 441.876L483.4 418.713C484 403.488 479.428 381.042 470.2 353.805C463.189 333.105 455.914 316.842 455.842 316.68C440.983 282.66 422.065 253.8 399.607 230.901C381.661 212.601 361.417 198.036 339.439 187.605C315.595 176.286 294.802 172.344 282.766 170.973C276.448 170.252 270.05 171.105 264.142 173.457L183.607 205.5C179.407 207.171 179.62 213.174 183.922 214.56C223.081 227.16 255.682 245.208 281.041 268.332C304.807 290.001 322.288 316.14 332.995 346.032C342.514 372.597 344.803 397.257 345.043 413.268C345.238 425.7 344.287 434.835 343.696 439.2Z" fill="#82B378"/>
<path d="M406.624 275.892C406.624 300.414 392.257 315.234 367.735 315.234C343.213 315.234 317.818 300.414 317.818 275.892C317.818 251.37 331.399 236.7 355.924 236.7C380.449 236.7 406.624 251.37 406.624 275.892Z" fill="#82B378"/>
<path d="M629.587 526.335V540.99C629.588 542.114 629.25 543.213 628.618 544.143C627.969 545.096 627.045 545.828 625.969 546.243C625.635 546.378 625.288 546.478 624.934 546.543C624.606 546.604 624.272 546.634 623.938 546.633H390.538C389.092 546.628 387.702 546.071 386.653 545.075C385.605 544.078 384.977 542.719 384.898 541.275C384.898 541.179 384.898 541.083 384.898 540.975V526.32C384.898 526.224 384.898 526.128 384.898 526.02C384.977 524.576 385.605 523.216 386.653 522.22C387.702 521.224 389.092 520.667 390.538 520.662H623.938C624.272 520.663 624.605 520.693 624.934 520.752C625.288 520.817 625.635 520.917 625.969 521.052C627.045 521.467 627.969 522.199 628.618 523.152C629.257 524.09 629.595 525.2 629.587 526.335Z" fill="#FFB93E"/>
<path d="M514.975 546.636H389.932C387.232 546.636 385.036 544.251 384.898 541.278C384.898 541.182 384.898 541.086 384.898 540.978V526.323C384.898 526.227 384.898 526.131 384.898 526.023C385.036 523.05 387.247 520.665 389.932 520.665H499.618C501.37 528.327 505.453 538.893 514.975 546.636Z" fill="#FFA412"/>
<path d="M601.186 520.689H598.534V546.636H601.186V520.689Z" fill="#FFA412"/>
<path d="M592.204 520.689H589.552V546.636H592.204V520.689Z" fill="#FFA412"/>
<path d="M581.437 520.689H578.785V546.636H581.437V520.689Z" fill="#FFA412"/>
<path d="M564.931 520.689H562.279V546.636H564.931V520.689Z" fill="#FFA412"/>
<path d="M547.48 520.689H544.828V546.636H547.48V520.689Z" fill="#FFA412"/>
<path d="M520.723 520.689H518.071V546.636H520.723V520.689Z" fill="#FFA412"/>
<path d="M495.67 520.689H493.018V546.636H495.67V520.689Z" fill="#FFA412"/>
<path d="M473.299 516.689H470.647V542.636H473.299V516.689Z" fill="#FFA412"/>
<path d="M609.733 520.689H607.081V546.636H609.733V520.689Z" fill="#FFA412"/>
<path d="M615.379 520.689H612.727V546.636H615.379V520.689Z" fill="#FFA412"/>
<path d="M620.83 520.689H618.178V546.636H620.83V520.689Z" fill="#FFA412"/>
<path d="M624.934 520.779V546.546C624.605 546.606 624.272 546.637 623.938 546.636H622.282V520.689H623.938C624.272 520.69 624.605 520.72 624.934 520.779Z" fill="#FFA412"/>
<path d="M628.618 523.2V544.158C627.969 545.111 627.045 545.843 625.969 546.258V521.07C627.049 521.493 627.973 522.236 628.618 523.2Z" fill="#FFA412"/>
<path d="M604.63 500.4V515.055C604.632 516.179 604.295 517.278 603.664 518.208C603.015 519.161 602.091 519.893 601.015 520.308C600.681 520.443 600.334 520.543 599.98 520.608C599.652 520.668 599.318 520.699 598.984 520.698H365.584C364.138 520.693 362.748 520.136 361.699 519.14C360.651 518.143 360.023 516.784 359.944 515.34C359.944 515.244 359.944 515.148 359.944 515.04V500.4C359.944 500.304 359.944 500.208 359.944 500.1C360.023 498.656 360.651 497.297 361.699 496.3C362.748 495.304 364.138 494.747 365.584 494.742H598.984C599.134 494.742 599.284 494.742 599.431 494.76C599.495 494.763 599.56 494.77 599.623 494.781L599.83 494.808L599.98 494.832C600.334 494.897 600.681 494.997 601.015 495.132L601.162 495.192C601.21 495.21 601.257 495.231 601.303 495.255C601.399 495.297 601.495 495.345 601.603 495.39L601.765 495.48C601.816 495.51 601.861 495.534 601.909 495.567C601.957 495.6 602.086 495.675 602.173 495.735C602.26 495.795 602.371 495.876 602.473 495.951C602.575 496.026 602.62 496.065 602.692 496.128L602.836 496.257C602.981 496.388 603.117 496.528 603.244 496.677C603.286 496.722 603.322 496.764 603.358 496.809L603.466 496.947C603.538 497.04 603.61 497.136 603.676 497.247C604.304 498.178 604.637 499.277 604.63 500.4Z" fill="#FFB93E"/>
<path d="M490.021 520.689H364.978C362.278 520.689 360.082 518.289 359.944 515.331C359.944 515.235 359.944 515.139 359.944 515.031V500.4C359.944 500.304 359.944 500.208 359.944 500.1C360.082 497.127 362.29 494.742 364.978 494.742H474.661L474.814 495.381C476.647 502.962 480.757 513.159 490.021 520.689Z" fill="#FFA412"/>
<path d="M576.229 494.742H573.577V520.689H576.229V494.742Z" fill="#FFA412"/>
<path d="M567.25 494.742H564.598V520.689H567.25V494.742Z" fill="#FFA412"/>
<path d="M556.483 494.742H553.831V520.689H556.483V494.742Z" fill="#FFA412"/>
<path d="M539.977 494.742H537.325V520.689H539.977V494.742Z" fill="#FFA412"/>
<path d="M522.523 494.742H519.871V520.689H522.523V494.742Z" fill="#FFA412"/>
<path d="M495.766 494.742H493.114V520.689H495.766V494.742Z" fill="#FFA412"/>
<path d="M470.713 494.742H468.061V520.689H470.713V494.742Z" fill="#FFA412"/>
<path d="M448.345 494.742H445.693V520.689H448.345V494.742Z" fill="#FFA412"/>
<path d="M584.776 494.742H582.124V520.689H584.776V494.742Z" fill="#FFA412"/>
<path d="M590.425 494.742H587.773V520.689H590.425V494.742Z" fill="#FFA412"/>
<path d="M595.876 494.742H593.224V520.689H595.876V494.742Z" fill="#FFA412"/>
<path d="M599.98 494.832V520.599C599.651 520.658 599.318 520.688 598.984 520.689H597.328V494.742H598.984C599.318 494.741 599.651 494.771 599.98 494.832Z" fill="#FFA412"/>
<path d="M603.664 497.235V518.196C603.014 519.15 602.089 519.882 601.012 520.296V495.111C602.093 495.531 603.018 496.272 603.664 497.235Z" fill="#FFA412"/>
<path d="M616.69 475.083V489.735C616.692 490.859 616.355 491.958 615.724 492.888C615.073 493.84 614.148 494.572 613.072 494.988C612.739 495.123 612.393 495.224 612.04 495.288C611.712 495.348 611.378 495.378 611.044 495.378H377.644C376.737 495.379 375.844 495.159 375.04 494.739C374.206 494.304 373.493 493.668 372.967 492.889C372.44 492.109 372.115 491.211 372.022 490.275C372.011 490.191 372.004 490.107 372.001 490.023C372.001 489.927 372.001 489.828 372.001 489.723V475.071C372.001 474.972 372.001 474.876 372.001 474.771C372.081 473.327 372.709 471.967 373.758 470.971C374.807 469.975 376.197 469.418 377.644 469.413H611.044C611.378 469.414 611.711 469.444 612.04 469.503C612.393 469.569 612.739 469.669 613.072 469.803C614.148 470.218 615.073 470.951 615.724 471.903C616.362 472.84 616.699 473.949 616.69 475.083Z" fill="#FFB93E"/>
<path d="M502.078 495.381H377.038C376.221 495.379 375.419 495.159 374.716 494.742C373.943 494.267 373.295 493.613 372.825 492.837C372.356 492.061 372.078 491.183 372.016 490.278C372.005 490.194 371.998 490.11 371.995 490.026C371.995 489.93 371.995 489.831 371.995 489.726V475.074C371.995 474.975 371.995 474.879 371.995 474.774C372.133 471.801 374.347 469.416 377.032 469.416H486.718C488.422 476.847 492.331 487.044 501.304 494.724C501.565 494.958 501.82 495.171 502.078 495.381Z" fill="#FFA412"/>
<path d="M588.289 469.434H585.637V495.381H588.289V469.434Z" fill="#FFA412"/>
<path d="M579.31 469.434H576.658V495.381H579.31V469.434Z" fill="#FFA412"/>
<path d="M568.543 469.434H565.891V495.381H568.543V469.434Z" fill="#FFA412"/>
<path d="M552.037 469.434H549.385V495.381H552.037V469.434Z" fill="#FFA412"/>
<path d="M534.583 469.434H531.931V495.381H534.583V469.434Z" fill="#FFA412"/>
<path d="M507.826 469.434H505.174V495.381H507.826V469.434Z" fill="#FFA412"/>
<path d="M482.773 469.434H480.121V495.381H482.773V469.434Z" fill="#FFA412"/>
<path d="M460.405 469.434H457.753V495.381H460.405V469.434Z" fill="#FFA412"/>
<path d="M596.836 469.434H594.184V495.381H596.836V469.434Z" fill="#FFA412"/>
<path d="M602.485 469.434H599.833V495.381H602.485V469.434Z" fill="#FFA412"/>
<path d="M607.936 469.434H605.284V495.381H607.936V469.434Z" fill="#FFA412"/>
<path d="M612.04 469.524V495.3C611.711 495.36 611.378 495.39 611.044 495.39H609.385V469.443H611.044C611.378 469.441 611.711 469.468 612.04 469.524Z" fill="#FFA412"/>
<path d="M615.724 471.927V492.9C615.074 493.853 614.149 494.585 613.072 495V469.8C614.152 470.222 615.078 470.964 615.724 471.927Z" fill="#FFA412"/>
<path d="M622.282 449.136V463.8C622.283 464.924 621.945 466.023 621.313 466.953C620.664 467.906 619.74 468.638 618.664 469.053C618.33 469.188 617.983 469.289 617.629 469.353C617.301 469.413 616.969 469.444 616.636 469.443H383.236C381.79 469.438 380.401 468.881 379.352 467.886C378.304 466.89 377.676 465.532 377.596 464.088C377.596 463.989 377.596 463.893 377.596 463.788V449.136C377.596 449.037 377.596 448.941 377.596 448.836C377.669 447.507 378.207 446.246 379.117 445.274C380.026 444.302 381.249 443.681 382.57 443.52C382.791 443.491 383.013 443.477 383.236 443.478H616.636C616.969 443.479 617.301 443.509 617.629 443.568C617.983 443.632 618.33 443.733 618.664 443.868C619.74 444.283 620.664 445.015 621.313 445.968C621.949 446.902 622.287 448.006 622.282 449.136Z" fill="#FFB93E"/>
<path d="M507.67 469.434H382.63C379.93 469.434 377.731 467.034 377.593 464.079C377.593 463.98 377.593 463.884 377.593 463.779V449.127C377.593 449.028 377.593 448.932 377.593 448.827C377.719 446.079 379.621 443.832 382.033 443.511C382.232 443.482 382.432 443.467 382.633 443.469H492.307V443.511C494.08 451.161 498.163 461.7 507.67 469.434Z" fill="#FFA412"/>
<path d="M593.881 443.487H591.229V469.434H593.881V443.487Z" fill="#FFA412"/>
<path d="M584.902 443.487H582.25V469.434H584.902V443.487Z" fill="#FFA412"/>
<path d="M574.132 443.487H571.48V469.434H574.132V443.487Z" fill="#FFA412"/>
<path d="M557.629 443.487H554.977V469.434H557.629V443.487Z" fill="#FFA412"/>
<path d="M540.175 443.487H537.523V469.434H540.175V443.487Z" fill="#FFA412"/>
<path d="M513.418 443.487H510.766V469.434H513.418V443.487Z" fill="#FFA412"/>
<path d="M488.365 443.487H485.713V469.434H488.365V443.487Z" fill="#FFA412"/>
<path d="M465.994 443.487H463.342V469.434H465.994V443.487Z" fill="#FFA412"/>
<path d="M602.428 443.487H599.776V469.434H602.428V443.487Z" fill="#FFA412"/>
<path d="M608.074 443.487H605.422V469.434H608.074V443.487Z" fill="#FFA412"/>
<path d="M613.528 443.487H610.876V469.434H613.528V443.487Z" fill="#FFA412"/>
<path d="M617.629 443.577V469.344C617.301 469.403 616.969 469.433 616.636 469.434H614.977V443.487H616.636C616.969 443.486 617.302 443.517 617.629 443.577Z" fill="#FFA412"/>
<path d="M621.307 445.98V466.938C620.658 467.891 619.734 468.623 618.658 469.038V443.838C619.74 444.264 620.664 445.011 621.307 445.98Z" fill="#FFA412"/>
<path d="M605.122 423.228V437.88C605.124 439.005 604.786 440.103 604.153 441.033C603.506 441.991 602.582 442.729 601.504 443.148C601.171 443.283 600.825 443.383 600.472 443.448C600.361 443.466 600.253 443.484 600.142 443.496L599.959 443.514L599.776 443.529H599.476H366.076C364.63 443.524 363.24 442.967 362.191 441.971C361.143 440.974 360.515 439.615 360.436 438.171C360.436 438.075 360.436 437.979 360.436 437.871V423.219C360.436 423.123 360.436 423.024 360.436 422.919C360.436 422.814 360.436 422.76 360.436 422.682C360.55 421.523 361.017 420.428 361.774 419.543C362.531 418.659 363.542 418.029 364.669 417.738L364.843 417.696C365.243 417.607 365.651 417.562 366.061 417.561H599.461C599.632 417.561 599.8 417.561 599.965 417.585L600.19 417.609L600.454 417.654C600.807 417.719 601.153 417.819 601.486 417.954C602.562 418.369 603.486 419.101 604.135 420.054C604.778 420.988 605.122 422.094 605.122 423.228Z" fill="#FFB93E"/>
<path d="M490.507 443.529H365.467C362.767 443.529 360.568 441.129 360.43 438.171C360.43 438.075 360.43 437.979 360.43 437.871V423.219C360.43 423.123 360.43 423.024 360.43 422.919C360.43 422.814 360.43 422.76 360.43 422.682C360.634 420.237 362.248 418.233 364.33 417.705C364.401 417.682 364.473 417.665 364.546 417.654C364.842 417.592 365.144 417.561 365.446 417.561H475.129L475.174 417.747C476.944 425.358 481.027 435.789 490.435 443.469L490.507 443.529Z" fill="#FFA412"/>
<path d="M576.721 417.579H574.069V443.526H576.721V417.579Z" fill="#FFA412"/>
<path d="M567.742 417.579H565.09V443.526H567.742V417.579Z" fill="#FFA412"/>
<path d="M556.972 417.579H554.32V443.526H556.972V417.579Z" fill="#FFA412"/>
<path d="M540.469 417.579H537.817V443.526H540.469V417.579Z" fill="#FFA412"/>
<path d="M523.015 417.579H520.363V443.526H523.015V417.579Z" fill="#FFA412"/>
<path d="M496.258 417.579H493.606V443.526H496.258V417.579Z" fill="#FFA412"/>
<path d="M471.205 417.579H468.553V443.526H471.205V417.579Z" fill="#FFA412"/>
<path d="M448.834 417.579H446.182V443.526H448.834V417.579Z" fill="#FFA412"/>
<path d="M585.268 417.579H582.616V443.526H585.268V417.579Z" fill="#FFA412"/>
<path d="M590.914 417.579H588.262V443.526H590.914V417.579Z" fill="#FFA412"/>
<path d="M596.368 417.579H593.716V443.526H596.368V417.579Z" fill="#FFA412"/>
<path d="M600.472 417.669V443.436C600.143 443.496 599.81 443.526 599.476 443.526H597.817V417.579H599.476C599.81 417.58 600.143 417.61 600.472 417.669Z" fill="#FFA412"/>
<path d="M604.153 420.075V441.033C603.505 441.99 602.581 442.728 601.504 443.148V417.948C602.583 418.37 603.508 419.112 604.153 420.075Z" fill="#FFA412"/>
<path d="M604.63 397.464V412.119C604.632 413.243 604.295 414.342 603.664 415.272C603.015 416.225 602.091 416.957 601.015 417.372C600.753 417.474 600.483 417.555 600.208 417.615C600.133 417.633 600.061 417.651 599.986 417.663C599.658 417.723 599.324 417.754 598.99 417.753H365.59C365.346 417.754 365.102 417.737 364.861 417.702C364.767 417.693 364.674 417.679 364.582 417.66C363.331 417.43 362.194 416.786 361.353 415.83C360.513 414.875 360.019 413.665 359.95 412.395C359.95 412.299 359.95 412.203 359.95 412.095V397.44C359.95 397.344 359.95 397.248 359.95 397.14C360.03 395.696 360.658 394.338 361.706 393.342C362.755 392.347 364.144 391.79 365.59 391.785H598.99C599.14 391.785 599.29 391.785 599.437 391.803L599.629 391.821L599.836 391.851L599.986 391.875C600.34 391.94 600.687 392.04 601.021 392.175C601.069 392.193 601.117 392.211 601.168 392.235C601.216 392.253 601.263 392.274 601.309 392.298C601.408 392.34 601.501 392.388 601.609 392.433C601.717 392.478 601.816 392.547 601.909 392.61C602.002 392.673 602.086 392.718 602.173 392.778C602.26 392.838 602.371 392.919 602.473 392.991C602.575 393.063 602.62 393.108 602.692 393.171C602.74 393.21 602.788 393.255 602.836 393.3C602.981 393.431 603.117 393.571 603.244 393.72C603.286 393.765 603.322 393.807 603.358 393.852L603.466 393.99C603.538 394.083 603.61 394.179 603.676 394.275C604.31 395.217 604.643 396.329 604.63 397.464Z" fill="#FFB93E"/>
<path d="M490.021 417.765H364.978H364.678C364.57 417.765 364.462 417.747 364.357 417.732C361.957 417.399 360.064 415.158 359.941 412.416C359.941 412.32 359.941 412.224 359.941 412.116V397.461C359.941 397.365 359.941 397.269 359.941 397.161C360.079 394.191 362.287 391.806 364.975 391.806H474.658L474.811 392.445C476.629 399.963 480.691 410.055 489.793 417.567L490.021 417.765Z" fill="#FFA412"/>
<path d="M576.229 391.818H573.577V417.765H576.229V391.818Z" fill="#FFA412"/>
<path d="M567.25 391.818H564.598V417.765H567.25V391.818Z" fill="#FFA412"/>
<path d="M556.483 391.818H553.831V417.765H556.483V391.818Z" fill="#FFA412"/>
<path d="M539.977 391.818H537.325V417.765H539.977V391.818Z" fill="#FFA412"/>
<path d="M522.523 391.818H519.871V417.765H522.523V391.818Z" fill="#FFA412"/>
<path d="M495.766 391.818H493.114V417.765H495.766V391.818Z" fill="#FFA412"/>
<path d="M470.713 391.818H468.061V417.765H470.713V391.818Z" fill="#FFA412"/>
<path d="M448.345 391.818H445.693V417.765H448.345V391.818Z" fill="#FFA412"/>
<path d="M584.776 391.818H582.124V417.765H584.776V391.818Z" fill="#FFA412"/>
<path d="M590.425 391.818H587.773V417.765H590.425V391.818Z" fill="#FFA412"/>
<path d="M595.876 391.818H593.224V417.765H595.876V391.818Z" fill="#FFA412"/>
<path d="M599.98 391.908V417.675C599.651 417.735 599.318 417.766 598.984 417.765H597.328V391.818H598.984C599.318 391.817 599.651 391.847 599.98 391.908Z" fill="#FFA412"/>
<path d="M603.664 394.314V415.272C603.014 416.226 602.089 416.958 601.012 417.372V392.172C602.095 392.596 603.021 393.344 603.664 394.314Z" fill="#FFA412"/>
<path d="M616.69 372.156V386.811C616.692 387.935 616.355 389.034 615.724 389.964C615.073 390.916 614.148 391.648 613.072 392.064C612.739 392.199 612.393 392.3 612.04 392.364C611.712 392.424 611.378 392.454 611.044 392.454H377.644C376.737 392.455 375.844 392.235 375.04 391.815C374.206 391.38 373.493 390.744 372.967 389.965C372.44 389.185 372.115 388.287 372.022 387.351C372.011 387.267 372.004 387.183 372.001 387.099C372.001 387 372.001 386.904 372.001 386.799V372.144C372.001 372.048 372.001 371.952 372.001 371.844C372.081 370.4 372.709 369.04 373.758 368.044C374.807 367.048 376.197 366.491 377.644 366.486H611.044C611.378 366.485 611.712 366.516 612.04 366.576C612.393 366.64 612.739 366.741 613.072 366.876C614.148 367.291 615.073 368.024 615.724 368.976C616.362 369.913 616.699 371.022 616.69 372.156Z" fill="#FFB93E"/>
<path d="M502.078 392.457H377.038C376.221 392.455 375.419 392.235 374.716 391.818C373.943 391.343 373.295 390.689 372.825 389.913C372.356 389.137 372.078 388.259 372.016 387.354C372.005 387.27 371.998 387.186 371.995 387.102C371.995 387.003 371.995 386.907 371.995 386.802V372.147C371.995 372.051 371.995 371.955 371.995 371.847C372.133 368.874 374.347 366.489 377.032 366.489H486.718C488.422 373.92 492.331 384.117 501.304 391.797C501.565 392.034 501.82 392.244 502.078 392.457Z" fill="#FFA412"/>
<path d="M588.289 366.513H585.637V392.46H588.289V366.513Z" fill="#FFA412"/>
<path d="M579.31 366.513H576.658V392.46H579.31V366.513Z" fill="#FFA412"/>
<path d="M568.543 366.513H565.891V392.46H568.543V366.513Z" fill="#FFA412"/>
<path d="M552.037 366.513H549.385V392.46H552.037V366.513Z" fill="#FFA412"/>
<path d="M534.583 366.513H531.931V392.46H534.583V366.513Z" fill="#FFA412"/>
<path d="M507.826 366.513H505.174V392.46H507.826V366.513Z" fill="#FFA412"/>
<path d="M482.773 366.513H480.121V392.46H482.773V366.513Z" fill="#FFA412"/>
<path d="M460.405 366.513H457.753V392.46H460.405V366.513Z" fill="#FFA412"/>
<path d="M596.836 366.513H594.184V392.46H596.836V366.513Z" fill="#FFA412"/>
<path d="M602.485 366.513H599.833V392.46H602.485V366.513Z" fill="#FFA412"/>
<path d="M607.936 366.513H605.284V392.46H607.936V366.513Z" fill="#FFA412"/>
<path d="M612.04 366.6V392.367C611.711 392.427 611.378 392.457 611.044 392.457H609.385V366.51H611.044C611.378 366.511 611.711 366.541 612.04 366.6Z" fill="#FFA412"/>
<path d="M615.724 369V389.958C615.074 390.911 614.149 391.643 613.072 392.058V366.858C614.154 367.285 615.079 368.032 615.724 369Z" fill="#FFA412"/>
<path d="M635.764 346.2V360.855C635.765 361.979 635.428 363.077 634.798 364.008C634.147 364.96 633.222 365.692 632.146 366.108C631.813 366.243 631.467 366.343 631.114 366.408C630.785 366.468 630.452 366.498 630.118 366.498H396.718C395.272 366.493 393.883 365.936 392.834 364.941C391.786 363.945 391.158 362.587 391.078 361.143C391.078 361.044 391.078 360.948 391.078 360.843V346.2C391.078 346.104 391.078 346.008 391.078 345.9C391.151 344.571 391.69 343.31 392.599 342.338C393.509 341.366 394.731 340.745 396.052 340.584C396.273 340.555 396.495 340.541 396.718 340.542H630.118C630.452 340.542 630.785 340.572 631.114 340.632C631.467 340.696 631.813 340.797 632.146 340.932C633.223 341.346 634.148 342.079 634.798 343.032C635.432 343.966 635.769 345.071 635.764 346.2Z" fill="#FFB93E"/>
<path d="M521.152 366.51H396.112C393.427 366.51 391.213 364.11 391.075 361.155C391.075 361.056 391.075 360.96 391.075 360.855V346.2C391.075 346.104 391.075 346.008 391.075 345.9C391.201 343.152 393.106 340.905 395.515 340.584C395.714 340.555 395.914 340.541 396.115 340.542H505.807V340.584C507.565 348.24 511.648 358.779 521.152 366.51Z" fill="#FFA412"/>
<path d="M607.363 340.563H604.711V366.51H607.363V340.563Z" fill="#FFA412"/>
<path d="M598.384 340.563H595.732V366.51H598.384V340.563Z" fill="#FFA412"/>
<path d="M587.617 340.563H584.965V366.51H587.617V340.563Z" fill="#FFA412"/>
<path d="M571.111 340.563H568.459V366.51H571.111V340.563Z" fill="#FFA412"/>
<path d="M553.657 340.563H551.005V366.51H553.657V340.563Z" fill="#FFA412"/>
<path d="M526.9 340.563H524.248V366.51H526.9V340.563Z" fill="#FFA412"/>
<path d="M501.847 340.563H499.195V366.51H501.847V340.563Z" fill="#FFA412"/>
<path d="M479.479 340.563H476.827V366.51H479.479V340.563Z" fill="#FFA412"/>
<path d="M615.91 340.563H613.258V366.51H615.91V340.563Z" fill="#FFA412"/>
<path d="M621.559 340.563H618.907V366.51H621.559V340.563Z" fill="#FFA412"/>
<path d="M627.01 340.563H624.358V366.51H627.01V340.563Z" fill="#FFA412"/>
<path d="M631.114 340.653V366.42C630.786 366.48 630.452 366.511 630.118 366.51H628.459V340.563H630.118C630.452 340.562 630.786 340.592 631.114 340.653Z" fill="#FFA412"/>
<path d="M634.807 343.056V364.017C634.157 364.97 633.232 365.702 632.155 366.117V340.917C633.237 341.342 634.163 342.088 634.807 343.056Z" fill="#FFA412"/>
<path d="M605.122 320.304V334.956C605.123 336.08 604.785 337.179 604.153 338.109C603.503 339.061 602.579 339.793 601.504 340.209C601.171 340.343 600.825 340.443 600.472 340.509C600.361 340.53 600.253 340.548 600.142 340.56C600.031 340.572 599.968 340.578 599.881 340.584H599.749H599.476H366.076C364.63 340.579 363.24 340.022 362.191 339.026C361.143 338.029 360.515 336.67 360.436 335.226C360.436 335.13 360.436 335.031 360.436 334.926V320.274C360.436 320.178 360.436 320.079 360.436 319.974C360.515 318.53 361.143 317.171 362.191 316.174C363.24 315.178 364.63 314.621 366.076 314.616H599.476C599.575 314.616 599.674 314.616 599.776 314.616C600.01 314.628 600.242 314.655 600.472 314.697C600.825 314.761 601.171 314.862 601.504 314.997C601.671 315.061 601.834 315.135 601.993 315.216C602.095 315.267 602.191 315.318 602.293 315.372C602.306 315.376 602.317 315.383 602.326 315.393C602.422 315.447 602.515 315.507 602.608 315.57C602.625 315.578 602.641 315.588 602.656 315.6C602.743 315.658 602.827 315.72 602.908 315.786C603.108 315.935 603.296 316.099 603.472 316.275C603.526 316.329 603.58 316.383 603.628 316.44L603.658 316.47C603.691 316.506 603.724 316.539 603.754 316.578L603.772 316.599C603.829 316.665 603.886 316.734 603.937 316.806C603.988 316.878 604.09 317.007 604.162 317.106C604.8 318.05 605.135 319.165 605.122 320.304Z" fill="#FFB93E"/>
<path d="M490.507 340.605H365.467C362.767 340.605 360.568 338.22 360.43 335.247C360.43 335.151 360.43 335.052 360.43 334.947V320.295C360.43 320.199 360.43 320.1 360.43 319.995C360.568 317.022 362.782 314.637 365.467 314.637H475.15C475.195 314.835 475.243 315.036 475.294 315.237C477.115 322.809 481.216 333.003 490.456 340.545L490.507 340.605Z" fill="#FFA412"/>
<path d="M576.721 314.658H574.069V340.605H576.721V314.658Z" fill="#FFA412"/>
<path d="M567.742 314.658H565.09V340.605H567.742V314.658Z" fill="#FFA412"/>
<path d="M556.972 314.658H554.32V340.605H556.972V314.658Z" fill="#FFA412"/>
<path d="M540.469 314.658H537.817V340.605H540.469V314.658Z" fill="#FFA412"/>
<path d="M523.015 314.658H520.363V340.605H523.015V314.658Z" fill="#FFA412"/>
<path d="M496.258 314.658H493.606V340.605H496.258V314.658Z" fill="#FFA412"/>
<path d="M471.205 314.658H468.553V340.605H471.205V314.658Z" fill="#FFA412"/>
<path d="M448.834 314.658H446.182V340.605H448.834V314.658Z" fill="#FFA412"/>
<path d="M585.268 314.658H582.616V340.605H585.268V314.658Z" fill="#FFA412"/>
<path d="M590.914 314.658H588.262V340.605H590.914V314.658Z" fill="#FFA412"/>
<path d="M596.368 314.658H593.716V340.605H596.368V314.658Z" fill="#FFA412"/>
<path d="M600.472 314.748V340.5C600.144 340.561 599.81 340.592 599.476 340.593H597.817V314.643H599.476C599.811 314.648 600.144 314.683 600.472 314.748Z" fill="#FFA412"/>
<path d="M604.153 317.151V338.1C603.503 339.052 602.579 339.784 601.504 340.2V315C602.586 315.43 603.51 316.18 604.153 317.151Z" fill="#FFA412"/>
<path d="M622.282 294.954V309.6C622.283 310.724 621.945 311.823 621.313 312.753C620.664 313.706 619.74 314.438 618.664 314.853C618.33 314.988 617.983 315.089 617.629 315.153C617.302 315.213 616.969 315.243 616.636 315.243H383.236C382.361 315.244 381.497 315.039 380.716 314.643C379.858 314.213 379.123 313.573 378.58 312.782C378.037 311.99 377.703 311.074 377.611 310.119C377.611 310.044 377.611 309.966 377.596 309.888C377.581 309.81 377.596 309.693 377.596 309.588V294.954C377.596 294.858 377.596 294.762 377.596 294.654C377.669 293.325 378.207 292.064 379.117 291.092C380.026 290.12 381.249 289.499 382.57 289.338C382.791 289.309 383.013 289.295 383.236 289.296H616.636C616.969 289.297 617.301 289.327 617.629 289.386C617.983 289.45 618.33 289.551 618.664 289.686C619.739 290.102 620.663 290.834 621.313 291.786C621.948 292.72 622.286 293.824 622.282 294.954Z" fill="#FFB93E"/>
<path d="M507.67 315.255H382.63C381.84 315.254 381.063 315.047 380.377 314.655C379.583 314.182 378.917 313.523 378.434 312.735C377.952 311.947 377.668 311.053 377.608 310.131C377.608 310.056 377.608 309.978 377.593 309.9C377.578 309.822 377.593 309.705 377.593 309.6V294.954C377.593 294.858 377.593 294.762 377.593 294.654C377.719 291.906 379.621 289.659 382.033 289.338C382.232 289.309 382.432 289.295 382.633 289.296H492.307V289.338C494.017 296.775 497.941 306.975 506.935 314.643C507.187 314.859 507.427 315.06 507.67 315.255Z" fill="#FFA412"/>
<path d="M593.881 289.308H591.229V315.255H593.881V289.308Z" fill="#FFA412"/>
<path d="M584.902 289.308H582.25V315.255H584.902V289.308Z" fill="#FFA412"/>
<path d="M574.132 289.308H571.48V315.255H574.132V289.308Z" fill="#FFA412"/>
<path d="M557.629 289.308H554.977V315.255H557.629V289.308Z" fill="#FFA412"/>
<path d="M540.175 289.308H537.523V315.255H540.175V289.308Z" fill="#FFA412"/>
<path d="M513.418 289.308H510.766V315.255H513.418V289.308Z" fill="#FFA412"/>
<path d="M488.365 289.308H485.713V315.255H488.365V289.308Z" fill="#FFA412"/>
<path d="M465.994 289.308H463.342V315.255H465.994V289.308Z" fill="#FFA412"/>
<path d="M602.428 289.308H599.776V315.255H602.428V289.308Z" fill="#FFA412"/>
<path d="M608.074 289.308H605.422V315.255H608.074V289.308Z" fill="#FFA412"/>
<path d="M613.528 289.308H610.876V315.255H613.528V289.308Z" fill="#FFA412"/>
<path d="M617.629 289.398V315.165C617.302 315.225 616.969 315.255 616.636 315.255H614.977V289.308H616.636C616.969 289.307 617.302 289.338 617.629 289.398Z" fill="#FFA412"/>
<path d="M621.307 291.801V312.762C620.658 313.715 619.734 314.447 618.658 314.862V289.689C619.735 290.107 620.66 290.844 621.307 291.801Z" fill="#FFA412"/>
<path d="M605.122 269.049V283.701C605.124 284.826 604.786 285.924 604.153 286.854C603.506 287.812 602.582 288.55 601.504 288.969C601.171 289.103 600.825 289.203 600.472 289.269C600.361 289.287 600.253 289.305 600.142 289.317L599.959 289.335C599.899 289.335 599.836 289.335 599.776 289.35H599.476H366.076C364.63 289.345 363.24 288.788 362.191 287.792C361.143 286.795 360.515 285.436 360.436 283.992C360.436 283.896 360.436 283.8 360.436 283.692V269.049C360.436 268.953 360.436 268.854 360.436 268.749C360.515 267.305 361.143 265.946 362.191 264.949C363.24 263.953 364.63 263.396 366.076 263.391H599.476C599.81 263.392 600.144 263.423 600.472 263.484C600.825 263.549 601.171 263.649 601.504 263.784C602.58 264.199 603.504 264.931 604.153 265.884C604.788 266.817 605.125 267.92 605.122 269.049Z" fill="#FFB93E"/>
<path d="M490.507 289.35H365.467C362.767 289.35 360.568 286.95 360.43 283.992C360.43 283.896 360.43 283.8 360.43 283.692V269.049C360.43 268.953 360.43 268.854 360.43 268.749C360.568 265.779 362.782 263.391 365.467 263.391H475.15C476.899 271.02 480.97 281.559 490.45 289.299L490.507 289.35Z" fill="#FFA412"/>
<path d="M576.721 263.403H574.069V289.35H576.721V263.403Z" fill="#FFA412"/>
<path d="M567.742 263.403H565.09V289.35H567.742V263.403Z" fill="#FFA412"/>
<path d="M556.972 263.403H554.32V289.35H556.972V263.403Z" fill="#FFA412"/>
<path d="M540.469 263.403H537.817V289.35H540.469V263.403Z" fill="#FFA412"/>
<path d="M523.015 263.403H520.363V289.35H523.015V263.403Z" fill="#FFA412"/>
<path d="M496.258 263.403H493.606V289.35H496.258V263.403Z" fill="#FFA412"/>
<path d="M471.205 263.403H468.553V289.35H471.205V263.403Z" fill="#FFA412"/>
<path d="M448.834 263.4H446.182V289.347H448.834V263.4Z" fill="#FFA412"/>
<path d="M585.268 263.403H582.616V289.35H585.268V263.403Z" fill="#FFA412"/>
<path d="M590.914 263.403H588.262V289.35H590.914V263.403Z" fill="#FFA412"/>
<path d="M596.368 263.403H593.716V289.35H596.368V263.403Z" fill="#FFA412"/>
<path d="M600.472 263.493V289.257C600.144 289.318 599.81 289.349 599.476 289.35H597.817V263.4H599.476C599.81 263.401 600.144 263.432 600.472 263.493Z" fill="#FFA412"/>
<path d="M604.153 265.896V286.854C603.505 287.811 602.581 288.549 601.504 288.969V263.769C602.583 264.191 603.508 264.933 604.153 265.896Z" fill="#FFA412"/>
<path d="M484.057 508.013C535.643 456.428 535.643 372.791 484.057 321.205C432.472 269.62 348.835 269.62 297.25 321.205C245.664 372.791 245.664 456.428 297.25 508.013C348.835 559.599 432.472 559.599 484.057 508.013Z" fill="#E2810E"/>
<path d="M472.534 508.013C524.12 456.428 524.12 372.791 472.534 321.205C420.949 269.62 337.312 269.62 285.727 321.205C234.141 372.791 234.141 456.428 285.727 508.013C337.312 559.599 420.949 559.599 472.534 508.013Z" fill="#FFB93E"/>
<path d="M379.129 536.52C359.337 536.52 339.851 531.639 322.396 522.309C304.941 512.979 290.057 499.489 279.061 483.032C268.065 466.576 261.298 447.662 259.358 427.965C257.418 408.269 260.365 388.398 267.939 370.113C275.513 351.827 287.48 335.692 302.779 323.136C318.078 310.581 336.238 301.992 355.65 298.13C375.061 294.269 395.125 295.255 414.065 301C433.005 306.746 450.235 317.073 464.23 331.068C486.961 353.799 499.483 384.021 499.483 416.169C499.483 448.317 486.961 478.539 464.23 501.27C453.081 512.481 439.818 521.369 425.21 527.419C410.603 533.47 394.94 536.563 379.129 536.52ZM379.129 302.997C352.946 302.997 327.573 312.076 307.334 328.686C287.094 345.297 273.24 368.411 268.132 394.091C263.024 419.771 266.978 446.427 279.321 469.518C291.664 492.61 311.631 510.707 335.821 520.726C360.011 530.746 386.927 532.068 411.982 524.468C437.038 516.867 458.683 500.814 473.229 479.044C487.775 457.273 494.323 431.133 491.757 405.076C489.19 379.019 477.668 354.658 459.154 336.144C448.669 325.603 436.197 317.246 422.461 311.557C408.725 305.868 393.997 302.959 379.129 303V302.997Z" fill="#FFA412"/>
<path d="M395.707 451.101C396.023 448.772 395.921 446.405 395.407 444.111C394.875 441.979 393.865 439.995 392.455 438.309C390.746 436.295 388.756 434.539 386.545 433.095C383.622 431.166 380.562 429.452 377.389 427.968C371.598 425.158 365.953 422.054 360.478 418.668C355.454 415.534 351.24 412.104 347.836 408.378C344.499 404.765 341.955 400.493 340.369 395.838C338.795 391.2 338.366 385.853 339.082 379.797C339.706 374.547 341.206 369.868 343.582 365.76C345.928 361.691 349.105 358.161 352.906 355.401C356.944 352.502 361.467 350.348 366.262 349.041C371.324 347.607 376.881 346.966 382.933 347.118L385.288 327.282L401.254 329.175L398.854 349.275C404.488 350.697 409.497 352.827 413.881 355.665C418.157 358.357 421.849 361.88 424.739 366.025C427.628 370.17 429.656 374.854 430.702 379.797C431.872 384.983 432.091 390.665 431.359 396.843L402.52 393.423C403.402 386.007 402.414 380.265 399.556 376.197C396.698 372.129 392.515 369.774 387.007 369.132C384.007 368.778 381.379 368.89 379.123 369.468C377.026 369.965 375.064 370.919 373.378 372.261C371.802 373.557 370.537 375.19 369.676 377.04C368.75 379.023 368.156 381.144 367.918 383.319C367.639 385.427 367.727 387.568 368.179 389.646C368.68 391.692 369.649 393.594 371.011 395.202C372.453 396.97 374.439 398.709 376.969 400.419C380.031 402.439 383.209 404.277 386.488 405.921C392.652 409.095 398.229 412.263 403.219 415.425C408.209 418.587 412.403 422.046 415.801 425.802C419.131 429.442 421.673 433.732 423.265 438.402C424.837 443.04 425.268 448.356 424.558 454.35C423.912 459.786 422.385 464.555 419.977 468.657C417.618 472.702 414.426 476.2 410.614 478.92C406.78 481.662 402.304 483.701 397.186 485.037C392.068 486.373 386.484 486.963 380.434 486.807L378.244 505.254L362.377 503.37L364.555 485.016C359.148 483.827 353.908 481.975 348.955 479.502C344.129 477.12 339.797 473.848 336.187 469.857C332.607 465.891 329.936 461.108 328.174 455.508C326.412 449.908 325.97 443.402 326.848 435.99L355.687 439.41C355.165 443.798 355.346 447.533 356.23 450.615C357.114 453.697 358.481 456.24 360.331 458.244C362.161 460.235 364.417 461.788 366.931 462.786C369.465 463.806 372.123 464.485 374.836 464.805C377.964 465.177 380.756 465.102 383.212 464.58C385.479 464.136 387.632 463.24 389.545 461.946C391.283 460.748 392.72 459.165 393.745 457.32C394.802 455.396 395.469 453.283 395.707 451.101Z" fill="#FFA412"/>
<path d="M773.527 457.389C773.527 457.389 759.199 440.67 772.645 430.05C772.645 430.05 782.467 424.104 790.474 424.587C790.474 424.587 779.128 443.616 782.797 445.509C786.466 447.402 793.915 423.393 793.915 423.393C793.915 423.393 816.265 421.227 823.456 424.683C823.456 424.683 804.349 440.319 808.372 441.252C812.395 442.185 833.035 426.834 833.035 426.834C833.035 426.834 853.837 430.374 852.73 443.064C851.623 455.754 844.453 459.675 841.3 459.336C838.147 458.997 819.721 451.965 819.319 454.536C818.917 457.107 830.014 465.555 837.781 465.936C837.781 465.936 823.114 482.112 813.367 477.444C803.62 472.776 802.786 465.375 796.711 462.6C790.636 459.825 785.449 459.831 787.957 462.663C790.465 465.495 801.457 468.243 804.937 474.39C808.417 480.537 811.537 484.68 801.445 483.165C791.353 481.65 774.967 474.267 774.247 465.819L773.527 457.389Z" fill="#82B378"/>
<path d="M842.506 443.4C842.506 443.4 786.004 441.225 773.527 457.383C773.527 457.383 770.767 465.648 762.277 473.172L760.954 476.772C760.954 476.772 770.743 466.449 774.247 465.825C774.247 465.84 768.769 445.818 842.506 443.4Z" fill="#82B378"/>
<path d="M762.277 473.178C762.277 473.178 750.148 482.148 749.308 498.174L751.507 498.372C751.507 498.372 755.38 481.8 762.382 475.32C769.384 468.84 762.277 473.178 762.277 473.178Z" fill="#82B378"/>
<path d="M723.424 436.362C723.424 436.362 746.224 423.597 735.583 406.272C735.583 406.272 727.072 395.634 717.952 392.901C717.952 392.901 722.815 418.734 717.952 419.343C713.089 419.952 714.61 390.165 714.61 390.165C714.61 390.165 690.61 378.615 681.175 379.527C681.175 379.527 696.07 404.754 691.207 404.145C686.344 403.536 669.625 378.006 669.625 378.006C669.625 378.006 645.007 373.446 641.056 388.038C637.105 402.63 643.486 409.92 647.134 410.838C650.782 411.756 674.185 411.438 673.579 414.486C672.973 417.534 657.166 422.388 648.349 419.652C648.349 419.652 658.078 443.652 670.849 442.452C683.62 441.252 687.565 433.335 695.467 432.726C703.369 432.117 709.144 434.244 705.193 436.371C701.242 438.498 687.868 437.07 681.493 442.497C675.118 447.924 669.943 451.266 681.793 453.696C693.643 456.126 714.922 454.596 719.179 445.491L723.424 436.362Z" fill="#A8D29F"/>
<path d="M652.3 392.595C652.3 392.595 716.131 413.265 723.424 436.362C723.424 436.362 723.124 446.697 729.502 458.562V463.119C729.502 463.119 722.815 447.618 719.17 445.491C719.17 445.482 733.456 425.421 652.3 392.595Z" fill="#82B378"/>
<path d="M729.502 458.553C729.502 458.553 739.345 473.499 733.735 491.694L731.203 491.016C731.203 491.016 733.66 470.973 728.503 460.893C723.346 450.813 729.502 458.553 729.502 458.553Z" fill="#82B378"/>
<path d="M759.691 418.758C759.691 418.758 729.64 401.931 743.665 379.092C743.665 379.092 754.882 365.07 766.903 361.464C766.903 361.464 760.492 395.52 766.903 396.321C773.314 397.122 771.307 357.858 771.307 357.858C771.307 357.858 802.957 342.633 815.377 343.836C815.377 343.836 795.745 377.091 802.156 376.29C808.567 375.489 830.602 341.832 830.602 341.832C830.602 341.832 863.056 335.832 868.264 355.053C873.472 374.274 865.06 383.901 860.251 385.104C855.442 386.307 824.593 385.905 825.394 389.904C826.195 393.903 847.03 400.323 858.649 396.717C858.649 396.717 845.827 428.367 829 426.765C812.173 425.163 806.965 414.744 796.549 413.943C786.133 413.142 778.519 415.947 783.727 418.743C788.935 421.539 806.563 419.661 814.978 426.816C823.393 433.971 830.203 438.375 814.576 441.582C798.949 444.789 770.905 442.782 765.298 430.764L759.691 418.758Z" fill="#A8D29F"/>
<path d="M853.444 361.065C853.444 361.065 769.306 388.308 759.691 418.758C759.691 418.758 760.093 432.381 751.678 448.005V454.005C751.678 454.005 760.492 433.572 765.301 430.767C765.307 430.779 746.47 404.334 853.444 361.065Z" fill="#82B378"/>
<path d="M751.678 448.005C751.678 448.005 738.703 467.7 746.107 491.7L749.446 490.8C749.446 490.8 746.206 464.382 752.995 451.095C759.784 437.808 751.678 448.005 751.678 448.005Z" fill="#82B378"/>
<path d="M758.677 543.708C791.185 543.708 817.54 517.353 817.54 484.845H699.817C699.817 517.353 726.169 543.708 758.677 543.708Z" fill="#F1A34F"/>
<path d="M773.161 543.255C770.735 543.558 768.292 543.709 765.847 543.708C733.342 543.708 706.99 517.353 706.99 484.845H721.612C721.612 514.878 744.103 539.655 773.161 543.255Z" fill="#FFB973"/>
<path d="M818.353 546.702H699.007C699.007 544.776 699.772 542.928 701.134 541.566C702.496 540.204 704.344 539.439 706.27 539.439H811.093C813.019 539.439 814.867 540.204 816.229 541.566C817.591 542.928 818.356 544.776 818.356 546.702H818.353Z" fill="#F1A34F"/>
<path d="M818.878 484.845H697.882V486.651H818.878V484.845Z" fill="#D86713"/>
<path d="M241.486 78.624L241.507 82.2C241.507 82.2 240.535 93.363 254.281 94.992C268.027 96.621 279.295 96.411 278.923 87.792C277.684 81.123 275.467 70.77 275.374 65.253C275.345 63.0151 275.509 60.7789 275.863 58.569L249.232 58.038L241.387 59.319L241.486 78.624Z" fill="#FFB27D"/>
<path d="M241.384 59.319L241.486 78.624C244.491 80.029 247.769 80.7522 251.086 80.742C263.326 80.742 271.237 71.766 275.386 65.253C275.357 63.0151 275.521 60.7789 275.875 58.569L249.244 58.038L241.384 59.319Z" fill="#E2915A"/>
<path d="M277.9 54.3C274.81 70.929 253.354 70.383 244.081 69.339C241.471 69.039 239.827 68.715 239.827 68.715C236.887 67.929 235.243 63.294 234.481 57.222C232.981 45.207 234.88 27.573 236.908 23.061C239.965 16.272 245.716 8.93098 267.328 14.229C288.94 19.527 281.866 32.976 277.9 54.3Z" fill="#FFB27D"/>
<path d="M295.459 546.648H265.054C265.583 542.954 266.393 539.305 267.478 535.734C267.939 534.232 268.515 532.768 269.2 531.354C272.158 525.45 290.941 529.203 290.941 529.203C290.941 529.203 292.684 530.703 294.046 536.403C294.81 539.771 295.283 543.199 295.459 546.648Z" fill="#233862"/>
<path d="M203.575 537.051C203.491 541.188 202.975 545.103 201.475 546.651H141.325C142.09 544.476 144.256 541.203 150.43 540.198C157.447 539.064 168.382 535.698 174.769 528.936C177.043 526.536 178.738 523.707 179.479 520.404C182.311 507.804 202.879 524.262 202.879 524.262C203.379 528.506 203.611 532.778 203.575 537.051Z" fill="#233862"/>
<path d="M243.577 400.869C242.74 405.483 242.209 409.269 242.077 411.969C240.166 449.262 210.682 534.534 205.411 536.523C197.251 539.601 184.411 533.058 177.679 530.916C174.895 530.016 173.014 527.217 173.635 524.367C188.233 457.248 193.6 360.6 195.553 303.381C196.54 274.56 201.487 254.652 201.487 254.652C201.487 254.652 273.391 235.452 273.817 259.734C274.186 281.22 249.991 365.442 243.577 400.869Z" fill="#2B478B"/>
<path d="M243.577 400.869L195.544 303.393C196.531 274.572 201.478 254.664 201.478 254.664C201.478 254.664 273.382 235.464 273.808 259.746C274.186 281.22 249.991 365.442 243.577 400.869Z" fill="#233862"/>
<path d="M227.578 259.83L265.591 535.329C265.591 535.329 282.283 539.352 295.267 536.133C295.267 536.133 306.394 389.61 305.467 354.189C304.54 318.768 313.453 259.389 303.433 252.855C293.413 246.321 227.578 259.83 227.578 259.83Z" fill="#2B478B"/>
<path d="M230.278 7.21496C230.278 7.21496 239.788 6.48596 251.008 1.60796C260.113 -2.35203 271.6 2.00696 275.332 3.97196C275.2 3.16715 274.893 2.40116 274.432 1.72797C274.432 1.72797 276.109 2.92796 276.355 4.57497C276.526 4.70396 276.604 4.79096 276.559 4.82096C276.559 4.82096 278.458 4.47296 279.676 5.02196C279.676 5.02196 278.824 4.89896 278.518 5.44796C278.483 5.50609 278.437 5.557 278.383 5.59796C292.585 12.462 293.896 34.911 289.327 40.098C283.828 46.347 277.234 60.42 277.234 60.42C277.234 60.42 274.834 57.096 275.83 51.597C276.826 46.098 272.08 46.098 266.08 43.599C260.08 41.1 265.069 34.104 259.807 29.856C254.545 25.608 235.309 28.107 235.561 24.858C228.427 22.254 230.278 7.94696 230.278 7.21496Z" fill="#233862"/>
<path d="M282.16 92.577L273.409 280.356C273.409 280.356 200.368 281.556 202.453 265.02C204.538 248.484 228.781 98.328 228.781 98.328L282.16 92.577Z" fill="#E9F3FE"/>
<path d="M308.239 199.014C303.907 212.052 312.088 255.795 315.007 270.615C315.649 273.75 316.075 275.601 316.075 275.601C305.959 292.056 268.912 291.846 268.912 291.846C261.79 260.346 258.085 210.201 258.085 210.201L286.507 85.596L322.27 118.653C322.27 118.653 319.57 138.816 316.216 159.333C313.582 175.575 310.591 192.105 308.239 199.014Z" fill="#22407A"/>
<path d="M247.453 57.021C247.453 57.021 246.757 59.166 241.345 58.383C241.345 58.383 236.797 57.726 237.145 55.332C237.136 55.332 241.705 54 247.453 57.021Z" fill="white"/>
<path d="M206.407 95.256C206.407 95.256 206.407 95.286 206.389 95.334C204.661 97.008 155.902 144.351 146.455 162.894C136.837 181.704 190.411 219.174 190.411 219.174C190.411 219.174 193.861 220.539 196.252 220.005C193.726 240.804 190.891 259.992 192.571 268.185C195.607 282.987 209.302 287.958 209.302 286.821C209.302 286.458 212.83 232.839 217.03 205.143C226.351 143.667 237.469 85.974 237.469 85.974C221.518 87.633 206.407 95.256 206.407 95.256ZM177.364 171.015C177.309 170.932 177.285 170.832 177.295 170.733C177.295 168.033 187.624 162.033 198.811 154.986L199.024 154.77H199.045C198.847 160.53 198.868 166.17 199.21 171.447C199.846 181.209 199.135 192.876 197.956 204.747C192.628 196.425 178.405 174.081 177.364 171.015Z" fill="#22407A"/>
<path d="M284.23 85.371C284.32 83.571 275.83 81.102 275.83 81.102C275.83 81.102 266.107 94.572 250.111 94.8C250.111 94.8 254.671 103.677 260.047 105.975C260.047 105.981 283.702 96 284.23 85.371Z" fill="#D9E9F9"/>
<path d="M227.632 221.718C228.023 226.106 230.035 230.19 233.275 233.175L238.375 237.867C238.678 238.146 239.034 238.359 239.423 238.493C239.812 238.627 240.224 238.679 240.634 238.646C241.044 238.613 241.443 238.496 241.805 238.301C242.168 238.107 242.486 237.839 242.74 237.516L249.04 229.503C250.73 227.354 251.528 224.637 251.269 221.916C250.669 215.853 249.577 204.171 248.698 192.897C247.981 183.762 247.408 174.897 247.366 169.497C247.225 152.259 250.645 97.29 250.645 97.29L246.517 97.5C246.517 97.5 236.254 118.839 230.878 147.87C229.478 155.351 228.524 162.908 228.022 170.502C228.022 170.502 225.868 201.9 227.632 221.718Z" fill="#C65447"/>
<path d="M227.632 221.718C228.023 226.106 230.035 230.19 233.275 233.175L238.375 237.867C238.678 238.146 239.034 238.359 239.423 238.493C239.812 238.627 240.224 238.679 240.634 238.646C241.044 238.613 241.443 238.496 241.805 238.301C242.168 238.107 242.486 237.839 242.74 237.516L249.04 229.503C250.73 227.354 251.529 224.637 251.269 221.916C250.669 215.853 249.577 204.171 248.698 192.897C237.277 180.066 232.651 162.336 230.875 147.867C229.475 155.348 228.521 162.905 228.019 170.499C228.019 170.499 225.868 201.9 227.632 221.718Z" fill="#BA4C43"/>
<path d="M250.111 94.5C250.111 94.5 241.63 89.472 241.603 84.024C241.603 84.024 236.125 83.337 233.734 85.992C233.734 85.992 231.721 95.334 234.388 100.758C234.388 100.749 246.607 98.889 250.111 94.5Z" fill="#D9E9F9"/>
<path d="M255.865 93.681L244.369 90.927C244.369 90.927 242.869 91.056 242.908 92.931C242.947 94.806 246.145 100.275 247.561 100.713C248.977 101.151 258.586 97.473 255.865 93.681Z" fill="#BA4C43"/>
<path d="M282.907 84.447C282.997 82.647 277.252 78.96 277.252 78.96C277.252 78.96 266.107 91.956 250.111 92.19C250.111 92.19 254.671 101.067 260.047 103.365C260.047 103.365 282.364 95.1 282.907 84.447Z" fill="#E9F3FE"/>
<path d="M250.111 92.19C250.111 92.19 241.534 87.645 241.507 82.2C241.507 82.2 236.332 84.477 233.938 87.132C233.938 87.132 231.724 93.03 234.391 98.454C234.388 98.448 246.607 96.6 250.111 92.19Z" fill="#E9F3FE"/>
<path d="M186.988 222.225C186.988 217.425 191.188 213.597 195.928 214.317C197.242 214.515 198.427 215.058 199.249 216.15C202.507 220.5 205.603 233.1 199.834 233.7C197.485 233.94 194.467 232.293 192.145 230.526C189.823 228.759 186.988 225.9 186.988 222.945V222.225Z" fill="#FFB27D"/>
<path d="M315.007 270.615C304.534 259.713 286.438 238.269 287.08 220.671C287.935 196.02 316.207 159.333 316.207 159.333C313.57 175.575 310.579 192.105 308.227 199.014C303.907 212.052 312.088 255.795 315.007 270.615Z" fill="#233862"/>
<path d="M314.68 227.739C314.68 227.739 307.15 231.501 302.578 229.62C298.006 227.739 292.63 226.32 287.521 232.14C282.412 237.96 281.338 241.989 282.421 244.14C283.504 246.291 295.408 245.484 297.385 244.14C299.362 242.796 302.485 239.484 304.471 240.063C309.94 241.653 314.548 237.48 317.128 234.156C318.676 232.149 314.476 231.177 314.68 227.739Z" fill="#FFB27D"/>
<path d="M286.507 85.596C286.507 85.596 316.507 88.914 323.566 101.973C330.625 115.032 367.411 167.955 366.205 189.948C364.999 211.941 316.045 236.604 316.045 236.604C316.045 236.604 305.2 232.02 305.038 227.091C304.876 222.162 338.884 192.696 336.838 187.191C334.792 181.686 297.307 138.21 293.707 123.873C290.107 109.536 286.507 85.596 286.507 85.596Z" fill="#22407A"/>
<path d="M199.024 154.77L198.811 154.986C187.624 162.039 177.307 168.024 177.307 170.733C175.807 165.957 190.345 146.007 195.046 141.948C199.807 137.817 199.024 154.77 199.024 154.77Z" fill="#233862"/>
<path d="M277.237 78.96C277.237 78.96 254.47 174.3 258.094 210.225C258.094 210.225 266.464 171.843 286.594 140.406C286.594 140.406 279.244 133.941 279.643 131.559C279.643 131.559 285.1 129.939 290.392 131.028C290.392 131.028 289.792 89.928 286.492 85.587C283.192 81.246 277.237 78.96 277.237 78.96Z" fill="#233862"/>
<path d="M241.507 82.2C241.807 82.344 218.947 175.371 217.024 205.149C217.024 205.149 219.304 152.013 219.082 136.698C219.082 136.698 228.535 131.694 228.535 129.936C228.535 128.178 218.449 123.432 218.449 123.432C218.449 123.432 224.833 90.702 228.307 87.096C231.781 83.49 241.507 82.2 241.507 82.2Z" fill="#233862"/>
<path d="M504.874 263.424L567.211 263.349C571.12 263.334 574.864 261.772 577.625 259.006C580.386 256.239 581.94 252.492 581.947 248.583L581.914 221.565C581.898 217.656 580.336 213.913 577.569 211.152C574.801 208.391 571.054 206.838 567.145 206.832L504.808 206.904C500.899 206.92 497.155 208.482 494.394 211.249C491.633 214.016 490.079 217.764 490.072 221.673L490.105 248.688C490.12 252.597 491.682 256.342 494.449 259.103C497.217 261.864 500.965 263.418 504.874 263.424Z" fill="#233862"/>
<path d="M571.729 213.87C570.553 211.821 568.905 210.083 566.922 208.798C564.94 207.514 562.68 206.72 560.329 206.484C559.852 206.439 559.372 206.412 558.88 206.412L546.469 206.43V200.598C546.466 199.303 545.949 198.062 545.033 197.148C544.116 196.234 542.874 195.72 541.579 195.72H538.339L525.307 195.735H522.958C521.663 195.738 520.422 196.255 519.507 197.171C518.592 198.088 518.078 199.33 518.077 200.625V206.457L496.651 206.481C492.727 206.497 488.969 208.065 486.198 210.842C483.426 213.619 481.866 217.38 481.858 221.304L481.894 248.634C481.91 252.557 483.478 256.314 486.255 259.085C489.033 261.856 492.794 263.415 496.717 263.421L558.943 263.349C560.018 263.349 561.089 263.23 562.138 262.995C563.763 262.633 565.314 261.995 566.725 261.111C568.866 259.778 570.632 257.922 571.856 255.718C573.08 253.513 573.722 251.033 573.721 248.511L573.691 221.184C573.687 218.616 573.011 216.095 571.729 213.87ZM521.125 200.625C521.126 200.237 521.251 199.859 521.481 199.546C521.712 199.233 522.035 199.001 522.406 198.885C522.582 198.829 522.765 198.801 522.949 198.801H525.715H535.975H541.567C542.05 198.801 542.514 198.993 542.856 199.334C543.198 199.676 543.39 200.139 543.391 200.622V206.451L521.122 206.475L521.125 200.625Z" fill="#2B478B"/>
</g>
<defs>
<clipPath id="clip0_157_236">
<rect width="921.693" height="548.565" fill="white" transform="translate(0.307007)"/>
</clipPath>
</defs>
</svg>
