<svg width="25" height="24" viewBox="0 0 25 24" fill="none" xmlns="http://www.w3.org/2000/svg">
<path d="M20.5 9H11.5C10.3954 9 9.5 9.89543 9.5 11V20C9.5 21.1046 10.3954 22 11.5 22H20.5C21.6046 22 22.5 21.1046 22.5 20V11C22.5 9.89543 21.6046 9 20.5 9Z" stroke="white" stroke-width="1.5" stroke-linecap="round" stroke-linejoin="round"/>
<path d="M5.5 15.0001H4.5C3.96957 15.0001 3.46086 14.7894 3.08579 14.4143C2.71071 14.0392 2.5 13.5305 2.5 13.0001V4.00009C2.5 3.46966 2.71071 2.96095 3.08579 2.58588C3.46086 2.21081 3.96957 2.00009 4.5 2.00009H13.5C14.0304 2.00009 14.5391 2.21081 14.9142 2.58588C15.2893 2.96095 15.5 3.46966 15.5 4.00009V5.00009" stroke="white" stroke-width="1.5" stroke-linecap="round" stroke-linejoin="round"/>
</svg>
