<svg id="Layer_1" enable-background="new 0 0 512.033 512.033" height="512" viewBox="0 0 512.033 512.033" width="512" xmlns="http://www.w3.org/2000/svg"><g><g><path d="m342.501 511.564h-215.964c-2.652 0-5.196-1.054-7.071-2.929s-2.929-4.419-2.929-7.072c.005-41.723-3.481-78.38-10.657-112.067-1.15-5.402 2.296-10.713 7.697-11.864 5.411-1.149 10.714 2.296 11.864 7.697 6.888 32.338 10.511 67.184 11.03 106.235h196.155c.305-49.464 19.169-76.657 74.375-75.999 17.878-.001 27.681-1.862 32.777-6.224 3.363-2.879 7.223-8.751 7.223-28.776v-56c0-5.523 4.477-10 10-10h26.16c6.898-.137 10.868-7.256 7.721-13.177-19.642-43.102-54.983-115.237-68.369-159.606-54.566-161.288-284.853-162.028-340.63-1.193-4.732 12.313-22.782 6.179-18.897-6.554 62.049-178.693 317.773-177.925 378.471 1.333 13.057 43.888 48.548 115.2 67.533 157.524 9.631 18.661-4.858 41.994-25.815 41.672-.019 0-16.152 0-16.173 0v46c.966 41.954-18.415 55.977-60.001 54.999-46.622.001-54.499 16.48-54.499 66.001-.001 5.523-4.478 10-10.001 10z" fill="#020288"/></g><g clip-rule="evenodd" fill="#fff69b" fill-rule="evenodd"><path d="m150 279.564h-45.501c-5.756 26.508-43.253 26.489-48.999 0h-45.5v120c0 11 9 20 20 20 20.849-.001 100.658.001 120 0v-45.501c26.507-5.756 26.49-43.253 0-48.999z"/><path d="m210 79.564v45.501c-26.508 5.756-26.49 43.252 0 48.999v45.501h45.501c5.756-26.508 43.252-26.49 48.999 0h45.5v-120c0-11-9-20-20-20h-120z"/></g><path d="m290 269.565h-38.375c-12.379-26.468-50.88-26.456-63.25 0h-28.375v-35.501c0-4.756-3.35-8.854-8.011-9.8-15.883-3.426-15.841-25.99 0-29.398 4.661-.946 8.01-5.044 8.01-9.8v-45.5c0-5.523-4.477-10-10-10h-119.999c-16.542 0-30 13.458-30 30v120c0 5.523 4.477 10 10 10h38.375c12.38 26.467 50.879 26.455 63.25 0h28.375v35.5c0 4.756 3.35 8.854 8.011 9.8 6.947 1.41 11.989 7.592 11.989 14.699s-5.042 13.289-11.99 14.7c-4.661.946-8.01 5.044-8.01 9.8v45.5c0 5.523 4.477 10 10 10h120c16.542 0 30-13.458 30-30v-120c0-5.523-4.477-10-10-10zm-150 0h-35.5c-4.756 0-8.854 3.35-9.8 8.011-1.41 6.947-7.592 11.989-14.699 11.989s-13.29-5.042-14.7-11.989c-.946-4.661-5.044-8.011-9.8-8.011h-35.501v-110c0-5.514 4.486-10 10-10h110v28.375c-26.468 12.379-26.456 50.879 0 63.25zm140 130c0 5.514-4.486 10-10 10h-110v-28.375c26.467-12.381 26.456-50.879 0-63.25v-28.375h35.5c4.756 0 8.854-3.35 9.8-8.011 1.41-6.947 7.592-11.989 14.699-11.989s13.29 5.042 14.7 11.989c.946 4.661 5.044 8.011 9.8 8.011h35.501z" fill="#020288"/></g></svg>